<svg width="25" height="23" viewBox="0 0 25 23" fill="none" xmlns="http://www.w3.org/2000/svg">
<path d="M12.6874 5.56245C12.6874 5.56245 12.6874 5.56245 11.7849 4.37497C10.7399 2.99749 9.19616 2 7.34368 2C4.38684 2 2 4.38684 2 7.34368C2 8.44804 2.3325 9.46928 2.90249 10.3124C3.86435 11.7492 12.6874 20.9998 12.6874 20.9998M12.6874 5.56245C12.6874 5.56245 12.6874 5.56245 13.5899 4.37497C14.6348 2.99749 16.1786 2 18.031 2C20.9879 2 23.3747 4.38684 23.3747 7.34368C23.3747 8.44804 23.0422 9.46928 22.4722 10.3124C21.5104 11.7492 12.6874 20.9998 12.6874 20.9998" stroke="black" stroke-width="2.37497" stroke-linecap="round" stroke-linejoin="round"/>
</svg>
