<svg width="23" height="20" viewBox="0 0 23 20" fill="none" xmlns="http://www.w3.org/2000/svg">
<path d="M11.5 5.16667C11.5 5.16667 11.5 5.16667 10.6978 4.11111C9.76889 2.88667 8.39667 2 6.75 2C4.12167 2 2 4.12167 2 6.75C2 7.73167 2.29556 8.63944 2.80222 9.38889C3.65722 10.6661 11.5 18.8889 11.5 18.8889M11.5 5.16667C11.5 5.16667 11.5 5.16667 12.3022 4.11111C13.2311 2.88667 14.6033 2 16.25 2C18.8783 2 21 4.12167 21 6.75C21 7.73167 20.7044 8.63944 20.1978 9.38889C19.3428 10.6661 11.5 18.8889 11.5 18.8889" fill="#F4F4F9"/>
<path d="M11.5 5.16667C11.5 5.16667 11.5 5.16667 10.6978 4.11111C9.76889 2.88667 8.39667 2 6.75 2C4.12167 2 2 4.12167 2 6.75C2 7.73167 2.29556 8.63944 2.80222 9.38889C3.65722 10.6661 11.5 18.8889 11.5 18.8889C11.5 18.8889 19.3428 10.6661 20.1978 9.38889C20.7044 8.63944 21 7.73167 21 6.75C21 4.12167 18.8783 2 16.25 2C14.6033 2 13.2311 2.88667 12.3022 4.11111C11.5 5.16667 11.5 5.16667 11.5 5.16667Z" stroke="black" stroke-width="2.11111" stroke-linecap="round" stroke-linejoin="round"/>
</svg>
