<svg width="15" height="17" viewBox="0 0 15 17" fill="none" xmlns="http://www.w3.org/2000/svg">
<path d="M4.68343 2.16007C4.44826 2.16007 4.22273 2.25348 4.05645 2.41977C3.89016 2.58606 3.79674 2.81159 3.79674 3.04675C3.79674 3.28191 3.89016 3.50745 4.05645 3.67373C4.22273 3.84002 4.44826 3.93344 4.68343 3.93344C4.91859 3.93344 5.14412 3.84002 5.31041 3.67373C5.47669 3.50745 5.57011 3.28191 5.57011 3.04675C5.57011 2.81159 5.47669 2.58606 5.31041 2.41977C5.14412 2.25348 4.91859 2.16007 4.68343 2.16007ZM2.17411 2.16007C2.3573 1.64088 2.69702 1.1913 3.14645 0.873298C3.59587 0.555293 4.13287 0.384521 4.68343 0.384521C5.23398 0.384521 5.77098 0.555293 6.22041 0.873298C6.66983 1.1913 7.00956 1.64088 7.19275 2.16007H13.5503C13.7854 2.16007 14.011 2.25348 14.1773 2.41977C14.3436 2.58606 14.437 2.81159 14.437 3.04675C14.437 3.28191 14.3436 3.50745 14.1773 3.67373C14.011 3.84002 13.7854 3.93344 13.5503 3.93344H7.19275C7.00956 4.45262 6.66983 4.9022 6.22041 5.2202C5.77098 5.53821 5.23398 5.70898 4.68343 5.70898C4.13287 5.70898 3.59587 5.53821 3.14645 5.2202C2.69702 4.9022 2.3573 4.45262 2.17411 3.93344H1.13669C0.901522 3.93344 0.67599 3.84002 0.509704 3.67373C0.343419 3.50745 0.25 3.28191 0.25 3.04675C0.25 2.81159 0.343419 2.58606 0.509704 2.41977C0.67599 2.25348 0.901522 2.16007 1.13669 2.16007H2.17411ZM10.0035 7.48018C9.76838 7.48018 9.54285 7.5736 9.37656 7.73988C9.21027 7.90617 9.11686 8.1317 9.11686 8.36686C9.11686 8.60203 9.21027 8.82756 9.37656 8.99384C9.54285 9.16013 9.76838 9.25355 10.0035 9.25355C10.2387 9.25355 10.4642 9.16013 10.6305 8.99384C10.7968 8.82756 10.8902 8.60203 10.8902 8.36686C10.8902 8.1317 10.7968 7.90617 10.6305 7.73988C10.4642 7.5736 10.2387 7.48018 10.0035 7.48018ZM7.49422 7.48018C7.67741 6.961 8.01713 6.51142 8.46656 6.19341C8.91599 5.87541 9.45299 5.70463 10.0035 5.70463C10.5541 5.70463 11.0911 5.87541 11.5405 6.19341C11.9899 6.51142 12.3297 6.961 12.5129 7.48018H13.5503C13.7854 7.48018 14.011 7.5736 14.1773 7.73988C14.3436 7.90617 14.437 8.1317 14.437 8.36686C14.437 8.60203 14.3436 8.82756 14.1773 8.99384C14.011 9.16013 13.7854 9.25355 13.5503 9.25355H12.5129C12.3297 9.77273 11.9899 10.2223 11.5405 10.5403C11.0911 10.8583 10.5541 11.0291 10.0035 11.0291C9.45299 11.0291 8.91599 10.8583 8.46656 10.5403C8.01713 10.2223 7.67741 9.77273 7.49422 9.25355H1.13669C0.901522 9.25355 0.67599 9.16013 0.509704 8.99384C0.343419 8.82756 0.25 8.60203 0.25 8.36686C0.25 8.1317 0.343419 7.90617 0.509704 7.73988C0.67599 7.5736 0.901522 7.48018 1.13669 7.48018H7.49422ZM4.68343 12.8003C4.44826 12.8003 4.22273 12.8937 4.05645 13.06C3.89016 13.2263 3.79674 13.4518 3.79674 13.687C3.79674 13.9221 3.89016 14.1477 4.05645 14.314C4.22273 14.4802 4.44826 14.5737 4.68343 14.5737C4.91859 14.5737 5.14412 14.4802 5.31041 14.314C5.47669 14.1477 5.57011 13.9221 5.57011 13.687C5.57011 13.4518 5.47669 13.2263 5.31041 13.06C5.14412 12.8937 4.91859 12.8003 4.68343 12.8003ZM2.17411 12.8003C2.3573 12.2811 2.69702 11.8315 3.14645 11.5135C3.59587 11.1955 4.13287 11.0247 4.68343 11.0247C5.23398 11.0247 5.77098 11.1955 6.22041 11.5135C6.66983 11.8315 7.00956 12.2811 7.19275 12.8003H13.5503C13.7854 12.8003 14.011 12.8937 14.1773 13.06C14.3436 13.2263 14.437 13.4518 14.437 13.687C14.437 13.9221 14.3436 14.1477 14.1773 14.314C14.011 14.4802 13.7854 14.5737 13.5503 14.5737H7.19275C7.00956 15.0928 6.66983 15.5424 6.22041 15.8604C5.77098 16.1784 5.23398 16.3492 4.68343 16.3492C4.13287 16.3492 3.59587 16.1784 3.14645 15.8604C2.69702 15.5424 2.3573 15.0928 2.17411 14.5737H1.13669C0.901522 14.5737 0.67599 14.4802 0.509704 14.314C0.343419 14.1477 0.25 13.9221 0.25 13.687C0.25 13.4518 0.343419 13.2263 0.509704 13.06C0.67599 12.8937 0.901522 12.8003 1.13669 12.8003H2.17411Z" fill="black"/>
</svg>
