<svg width="21" height="24" viewBox="0 0 21 24" fill="none" xmlns="http://www.w3.org/2000/svg">
<path d="M7.53117 22.375V15.8438C7.53117 15.214 7.78139 14.6099 8.22678 14.1645C8.67217 13.7191 9.27625 13.4689 9.90614 13.4689H11.0936C11.7235 13.4689 12.3276 13.7191 12.773 14.1645C13.2184 14.6099 13.4686 15.214 13.4686 15.8438V22.375M3.5329 22.3751C2.13405 22.3751 1 21.2113 1 19.7745V9.32222C1 8.53254 1.35031 7.78443 1.94999 7.29162L8.91696 1.57032C9.3621 1.2017 9.92193 1 10.4999 1C11.0778 1 11.6377 1.2017 12.0828 1.57032L19.0486 7.29162C19.6494 7.78443 19.9998 8.53254 19.9998 9.32222V19.7745C19.9998 21.2113 18.8657 22.3751 17.4669 22.3751H3.5329Z" stroke="black" stroke-width="1.78123" stroke-linecap="round" stroke-linejoin="round"/>
</svg>
