<svg width="19" height="21" viewBox="0 0 19 21" fill="none" xmlns="http://www.w3.org/2000/svg">
<path d="M3.2515 20.0003C2.00806 20.0003 1 18.9658 1 17.6886V8.39763C1 7.69568 1.31139 7.03068 1.84444 6.59263L8.03739 1.50696C8.43307 1.1793 8.93071 1 9.44444 1C9.95818 1 10.4558 1.1793 10.8515 1.50696L17.0434 6.59263C17.5775 7.03068 17.8889 7.69568 17.8889 8.39763V17.6886C17.8889 18.9658 16.8808 20.0003 15.6374 20.0003H3.2515Z" fill="#F4F4F9"/>
<path d="M6.80556 20.0003V14.1947C6.80556 13.6348 7.02798 13.0978 7.42389 12.7019C7.8198 12.306 8.35677 12.0836 8.91667 12.0836H9.97222C10.5321 12.0836 11.0691 12.306 11.465 12.7019C11.8609 13.0978 12.0833 13.6348 12.0833 14.1947V20.0003" fill="#F4F4F9"/>
<path d="M6.80556 20.0003V14.1947C6.80556 13.6348 7.02798 13.0978 7.42389 12.7019C7.8198 12.306 8.35677 12.0836 8.91667 12.0836H9.97222C10.5321 12.0836 11.0691 12.306 11.465 12.7019C11.8609 13.0978 12.0833 13.6348 12.0833 14.1947V20.0003M3.2515 20.0003C2.00806 20.0003 1 18.9658 1 17.6886V8.39763C1 7.69568 1.31139 7.03068 1.84444 6.59263L8.03739 1.50696C8.43307 1.1793 8.93071 1 9.44444 1C9.95818 1 10.4558 1.1793 10.8515 1.50696L17.0434 6.59263C17.5775 7.03068 17.8889 7.69568 17.8889 8.39763V17.6886C17.8889 18.9658 16.8808 20.0003 15.6374 20.0003H3.2515Z" stroke="black" stroke-width="1.58333" stroke-linecap="round" stroke-linejoin="round"/>
</svg>
