<svg width="26" height="25" viewBox="0 0 26 25" fill="none" xmlns="http://www.w3.org/2000/svg">
<path d="M16.1425 0C14.647 0.000909203 13.1732 0.344461 11.8436 1.00213C10.514 1.65981 9.36697 2.61262 8.49765 3.78148C7.62832 4.95034 7.06183 6.30151 6.8452 7.72282C6.62858 9.14413 6.76806 10.5946 7.25207 11.9537L0.212021 18.7168C0.0764311 18.8469 0.000168703 19.0233 0 19.2074V23.8357C0 24.0198 0.0761516 24.1964 0.211703 24.3266C0.347254 24.4568 0.5311 24.5299 0.722798 24.5299H5.54145C5.73315 24.5299 5.917 24.4568 6.05255 24.3266C6.1881 24.1964 6.26425 24.0198 6.26425 23.8357V21.753H8.43264C8.62434 21.753 8.80819 21.6798 8.94374 21.5496C9.07929 21.4194 9.15544 21.2428 9.15544 21.0587V18.976H11.3238C11.5155 18.9758 11.6992 18.9026 11.8346 18.7723L13.0935 17.5644C14.3841 17.9885 15.7555 18.1376 17.1122 18.0014C18.4689 17.8652 19.7784 17.4469 20.9498 16.7756C22.1213 16.1042 23.1265 15.196 23.8956 14.1139C24.6647 13.0318 25.1793 11.8018 25.4037 10.5095C25.628 9.21709 25.5567 7.89331 25.1947 6.63008C24.8327 5.36685 24.1887 4.19447 23.3074 3.1944C22.4261 2.19433 21.3287 1.39055 20.0914 0.838915C18.8541 0.287278 17.5066 0.00100982 16.1425 0ZM16.1425 16.6618C15.1346 16.6636 14.1357 16.4801 13.1995 16.1215C13.0664 16.0658 12.9188 16.0499 12.7761 16.0759C12.6335 16.1019 12.5022 16.1686 12.3996 16.2673L11.0239 17.5875H8.43264C8.24095 17.5875 8.0571 17.6606 7.92155 17.7908C7.786 17.921 7.70985 18.0976 7.70985 18.2817V20.3645H5.54145C5.34975 20.3645 5.16591 20.4376 5.03036 20.5678C4.89481 20.698 4.81865 20.8746 4.81865 21.0587V23.1415H1.4456V19.4955L8.6025 12.6202C8.70523 12.5216 8.77466 12.3956 8.80173 12.2585C8.82881 12.1215 8.81228 11.9798 8.75429 11.8519C8.12465 10.3341 8.01841 8.66238 8.45117 7.08231C8.88393 5.50223 9.83288 4.09712 11.1586 3.07341C12.4843 2.0497 14.1169 1.46136 15.8166 1.39482C17.5162 1.32829 19.1932 1.78707 20.6013 2.70376C22.0093 3.62045 23.0742 4.94673 23.6394 6.48773C24.2046 8.02874 24.2403 9.70323 23.7414 11.2652C23.2424 12.8272 22.2351 14.1942 20.8673 15.1656C19.4996 16.137 17.8435 16.6614 16.1425 16.6618ZM19.7565 6.71102C19.7565 6.93987 19.6858 7.16358 19.5535 7.35386C19.4211 7.54414 19.2329 7.69244 19.0128 7.78002C18.7927 7.86759 18.5505 7.89051 18.3168 7.84586C18.0831 7.80122 17.8685 7.69101 17.7 7.5292C17.5315 7.36738 17.4168 7.16121 17.3703 6.93676C17.3238 6.71231 17.3477 6.47966 17.4389 6.26823C17.53 6.0568 17.6844 5.87609 17.8825 5.74895C18.0806 5.62181 18.3136 5.55395 18.5518 5.55395C18.8713 5.55395 19.1777 5.67585 19.4036 5.89285C19.6296 6.10984 19.7565 6.40415 19.7565 6.71102Z" fill="#979797"/>
</svg>
