<svg width="26" height="25" viewBox="0 0 26 25" fill="none" xmlns="http://www.w3.org/2000/svg">
<path d="M6 21.5C5.45 21.5 4.97933 21.3043 4.588 20.913C4.19667 20.5217 4.00067 20.0507 4 19.5V7.5H6V19.5H18V21.5H6ZM10 15.5V17.5C9.45 17.5 8.97933 17.3043 8.588 16.913C8.19667 16.5217 8.00067 16.0507 8 15.5H10ZM8 13.5V11.5H10V13.5H8ZM8 9.5V7.5H10V9.5H8ZM10 5.5H8C8 4.95 8.196 4.47933 8.588 4.088C8.98 3.69667 9.45067 3.50067 10 3.5V5.5ZM12 17.5V15.5H14V17.5H12ZM12 5.5V3.5H14V5.5H12ZM16 5.5V3.5H18V5.5H16ZM16 17.5V15.5H18V17.5H16ZM20 5.5V3.5C20.55 3.5 21.021 3.696 21.413 4.088C21.805 4.48 22.0007 4.95067 22 5.5H20ZM20 15.5H22C22 16.05 21.8043 16.521 21.413 16.913C21.0217 17.305 20.5507 17.5007 20 17.5V15.5ZM20 13.5V11.5H22V13.5H20ZM20 9.5V7.5H22V9.5H20Z" fill="#545454"/>
</svg>
