<svg width="26" height="21" viewBox="0 0 26 21" fill="none" xmlns="http://www.w3.org/2000/svg">
<path d="M24.75 0.75H0.75C0.551088 0.75 0.360322 0.829018 0.21967 0.96967C0.0790175 1.11032 0 1.30109 0 1.5V18.5C0 18.9641 0.184375 19.4092 0.512563 19.7374C0.840752 20.0656 1.28587 20.25 1.75 20.25H23.75C24.2141 20.25 24.6592 20.0656 24.9874 19.7374C25.3156 19.4092 25.5 18.9641 25.5 18.5V1.5C25.5 1.30109 25.421 1.11032 25.2803 0.96967C25.1397 0.829018 24.9489 0.75 24.75 0.75ZM12.75 11.4825L2.6775 2.25H22.8225L12.75 11.4825ZM9.45875 10.5L1.5 17.795V3.205L9.45875 10.5ZM10.5688 11.5175L12.25 13.0525C12.3883 13.179 12.5689 13.2491 12.7563 13.2491C12.9436 13.2491 13.1242 13.179 13.2625 13.0525L14.9375 11.5175L22.8225 18.75H2.67875L10.5688 11.5175ZM16.0413 10.5L24 3.205V17.795L16.0413 10.5Z" fill="#979797"/>
</svg>
