<svg width="25" height="23" viewBox="0 0 25 23" fill="none" xmlns="http://www.w3.org/2000/svg">
<path fill-rule="evenodd" clip-rule="evenodd" d="M3.6001 6.00001C3.6001 5.50295 4.00304 5.10001 4.5001 5.10001H20.5001C20.9972 5.10001 21.4001 5.50295 21.4001 6.00001C21.4001 6.49706 20.9972 6.90001 20.5001 6.90001H4.5001C4.00304 6.90001 3.6001 6.49706 3.6001 6.00001Z" fill="black"/>
<path fill-rule="evenodd" clip-rule="evenodd" d="M3.59961 12C3.59961 11.5029 3.91653 11.1 4.30747 11.1H16.8917C17.2827 11.1 17.5996 11.5029 17.5996 12C17.5996 12.4971 17.2827 12.9 16.8917 12.9H4.30747C3.91653 12.9 3.59961 12.4971 3.59961 12Z" fill="black"/>
<path fill-rule="evenodd" clip-rule="evenodd" d="M3.6001 18C3.6001 17.5029 4.00304 17.1 4.5001 17.1H20.5001C20.9972 17.1 21.4001 17.5029 21.4001 18C21.4001 18.4971 20.9972 18.9 20.5001 18.9H4.5001C4.00304 18.9 3.6001 18.4971 3.6001 18Z" fill="black"/>
</svg>
