<svg width="27" height="27" viewBox="0 0 27 27" fill="none" xmlns="http://www.w3.org/2000/svg">
<path d="M3.74445 3.75701C5.51388 1.99159 7.91224 1 10.4128 1C12.9134 1 15.3118 1.99159 17.0812 3.75701C18.7591 5.43388 19.7431 7.68081 19.8371 10.0501C19.931 12.4194 19.1282 14.7371 17.5884 16.5414L17.9447 16.8906H19.1372L26.3333 24.0805L24.0854 26.3333L16.8893 19.1434V17.9588L16.5329 17.6027C14.6766 19.1721 12.2855 19.965 9.85836 19.8159C7.4312 19.6669 5.1553 18.5876 3.5052 16.8029C1.85511 15.0182 0.958201 12.666 1.0015 10.2368C1.04479 7.8075 2.02495 5.4887 3.7376 3.76386L3.74445 3.75701ZM5.83474 5.85236C4.92954 6.75755 4.31326 7.91057 4.06381 9.16565C3.81436 10.4207 3.94294 11.7215 4.43329 12.9036C4.92364 14.0857 5.75375 15.096 6.81869 15.8068C7.88362 16.5176 9.13556 16.897 10.4163 16.897C11.6969 16.897 12.9489 16.5176 14.0138 15.8068C15.0788 15.096 15.9089 14.0857 16.3992 12.9036C16.8896 11.7215 17.0182 10.4207 16.7687 9.16565C16.5193 7.91057 15.903 6.75755 14.9978 5.85236C13.7821 4.63931 12.1343 3.95796 10.4163 3.95796C8.69819 3.95796 7.05037 4.63931 5.83474 5.85236ZM17.5952 16.5482L16.5329 17.6027L17.5952 16.5482Z" fill="#F4F4F9"/>
<path d="M16.5329 17.6027L16.8893 17.9588V19.1434L24.0854 26.3333L26.3333 24.0805L19.1372 16.8906H17.9447L17.5884 16.5414C19.1282 14.7371 19.931 12.4194 19.8371 10.0501C19.7431 7.68081 18.7591 5.43388 17.0812 3.75701C15.3118 1.99159 12.9134 1 10.4128 1C7.91224 1 5.51388 1.99159 3.74445 3.75701L3.7376 3.76386C2.02495 5.4887 1.04479 7.8075 1.0015 10.2368C0.958201 12.666 1.85511 15.0182 3.5052 16.8029C5.1553 18.5876 7.4312 19.6669 9.85836 19.8159C12.2855 19.965 14.6766 19.1721 16.5329 17.6027ZM16.5329 17.6027L17.5952 16.5482M5.83474 5.85236C4.92954 6.75755 4.31326 7.91057 4.06381 9.16565C3.81436 10.4207 3.94294 11.7215 4.43329 12.9036C4.92364 14.0857 5.75375 15.096 6.81869 15.8068C7.88362 16.5176 9.13556 16.897 10.4163 16.897C11.697 16.897 12.9489 16.5176 14.0138 15.8068C15.0788 15.096 15.9089 14.0857 16.3992 12.9036C16.8896 11.7215 17.0182 10.4207 16.7687 9.16565C16.5193 7.91057 15.903 6.75755 14.9978 5.85236C13.7821 4.63931 12.1343 3.95796 10.4163 3.95796C8.69819 3.95796 7.05037 4.63931 5.83474 5.85236Z" stroke="#1E1E1E" stroke-width="1.05556" stroke-linecap="round" stroke-linejoin="round"/>
</svg>
