<svg width="31" height="27" viewBox="0 0 31 27" fill="none" xmlns="http://www.w3.org/2000/svg">
<path d="M4.08747 3.75698C6.07805 1.99158 8.77617 1 11.5893 1C14.4024 1 17.1005 1.99158 19.0911 3.75698C20.9787 5.43382 22.0857 7.68072 22.1914 10.05C22.2971 12.4192 21.3939 14.7369 19.6617 16.5412L20.0626 16.8904H21.4041L29.4996 24.0802L26.9708 26.333L18.8752 19.1432V17.9586L18.4743 17.6025C16.3859 19.1719 13.696 19.9647 10.9655 19.8157C8.23501 19.6667 5.67465 18.5873 3.81832 16.8027C1.96199 15.018 0.952977 12.6659 1.00168 10.2366C1.05039 7.80741 2.15306 5.48864 4.07976 3.76382L4.08747 3.75698ZM6.43902 5.8523C5.42068 6.75748 4.72737 7.91048 4.44675 9.16555C4.16612 10.4206 4.31077 11.7214 4.8624 12.9035C5.41404 14.0855 6.3479 15.0958 7.54594 15.8066C8.74397 16.5174 10.1524 16.8968 11.5932 16.8968C13.0339 16.8968 14.4423 16.5174 15.6404 15.8066C16.8384 15.0958 17.7723 14.0855 18.3239 12.9035C18.8755 11.7214 19.0202 10.4206 18.7396 9.16555C18.4589 7.91048 17.7656 6.75748 16.7473 5.8523C15.3797 4.63926 13.526 3.95792 11.5932 3.95792C9.66035 3.95792 7.80658 4.63926 6.43902 5.8523ZM19.6694 16.548L18.4743 17.6025L19.6694 16.548Z" fill="black"/>
<path d="M18.4743 17.6025L18.8752 17.9586V19.1432L26.9708 26.333L29.4996 24.0802L21.4041 16.8904H20.0626L19.6617 16.5412C21.3939 14.7369 22.2971 12.4192 22.1914 10.05C22.0857 7.68072 20.9787 5.43382 19.0911 3.75698C17.1005 1.99158 14.4024 1 11.5893 1C8.77617 1 6.07805 1.99158 4.08747 3.75698L4.07976 3.76382C2.15306 5.48864 1.05039 7.80741 1.00168 10.2366C0.952977 12.6659 1.96199 15.018 3.81832 16.8027C5.67465 18.5873 8.23501 19.6667 10.9655 19.8157C13.696 19.9647 16.3859 19.1719 18.4743 17.6025ZM18.4743 17.6025L19.6694 16.548M6.43902 5.8523C5.42068 6.75748 4.72737 7.91048 4.44675 9.16555C4.16612 10.4206 4.31077 11.7214 4.8624 12.9035C5.41404 14.0855 6.3479 15.0958 7.54594 15.8066C8.74397 16.5174 10.1524 16.8968 11.5932 16.8968C13.0339 16.8968 14.4423 16.5174 15.6404 15.8066C16.8384 15.0958 17.7723 14.0855 18.3239 12.9035C18.8755 11.7214 19.0202 10.4206 18.7396 9.16555C18.4589 7.91048 17.7656 6.75748 16.7473 5.8523C15.3797 4.63926 13.526 3.95792 11.5932 3.95792C9.66035 3.95792 7.80658 4.63926 6.43902 5.8523Z" stroke="#1E1E1E" stroke-width="1.18748" stroke-linecap="round" stroke-linejoin="round"/>
</svg>
