<svg width="26" height="25" viewBox="0 0 26 25" fill="none" xmlns="http://www.w3.org/2000/svg">
<path d="M25.4146 23.3776C23.4383 19.9626 20.3358 17.5663 16.7308 16.5501C18.4835 15.6591 19.885 14.2039 20.7095 12.4189C21.5339 10.634 21.7331 8.62342 21.275 6.7114C20.8169 4.79938 19.7283 3.09735 18.1845 1.87977C16.6408 0.66218 14.7319 0 12.7658 0C10.7997 0 8.89085 0.66218 7.34711 1.87977C5.80336 3.09735 4.71468 4.79938 4.25661 6.7114C3.79853 8.62342 3.99776 10.634 4.82218 12.4189C5.64659 14.2039 7.04813 15.6591 8.80081 16.5501C5.19581 17.5651 2.09331 19.9613 0.117063 23.3776C0.0627977 23.4629 0.0263606 23.5584 0.00994374 23.6582C-0.00647308 23.758 -0.00253015 23.8601 0.0215349 23.9584C0.0456 24.0566 0.08929 24.149 0.149977 24.2299C0.210664 24.3108 0.287093 24.3786 0.374667 24.4293C0.462241 24.4799 0.559149 24.5123 0.659563 24.5245C0.759976 24.5367 0.861819 24.5284 0.958966 24.5002C1.05611 24.4721 1.14655 24.4245 1.22485 24.3605C1.30314 24.2964 1.36768 24.2172 1.41456 24.1276C3.81581 19.9788 8.05831 17.5026 12.7658 17.5026C17.4733 17.5026 21.7158 19.9788 24.1171 24.1276C24.1639 24.2172 24.2285 24.2964 24.3068 24.3605C24.3851 24.4245 24.4755 24.4721 24.5727 24.5002C24.6698 24.5284 24.7717 24.5367 24.8721 24.5245C24.9725 24.5123 25.0694 24.4799 25.157 24.4293C25.2445 24.3786 25.321 24.3108 25.3817 24.2299C25.4423 24.149 25.486 24.0566 25.5101 23.9584C25.5342 23.8601 25.5381 23.758 25.5217 23.6582C25.5053 23.5584 25.4688 23.4629 25.4146 23.3776ZM5.51581 8.75258C5.51581 7.31867 5.94102 5.91695 6.73766 4.7247C7.5343 3.53244 8.66659 2.60319 9.99136 2.05446C11.3161 1.50572 12.7739 1.36215 14.1802 1.64189C15.5866 1.92163 16.8784 2.61213 17.8923 3.62606C18.9063 4.63999 19.5968 5.93181 19.8765 7.33818C20.1562 8.74454 20.0127 10.2023 19.4639 11.527C18.9152 12.8518 17.986 13.9841 16.7937 14.7807C15.6014 15.5774 14.1997 16.0026 12.7658 16.0026C10.8437 16.0003 9.00098 15.2357 7.64185 13.8765C6.28271 12.5174 5.51813 10.6747 5.51581 8.75258Z" fill="#979797"/>
</svg>
