<svg width="30" height="21" viewBox="0 0 30 21" fill="none" xmlns="http://www.w3.org/2000/svg">
<path d="M29.9353 9.96122C29.8928 9.86372 28.8528 7.55747 26.5303 5.23497C24.3753 3.08247 20.6728 0.514969 15.2503 0.514969C9.82781 0.514969 6.12531 3.08247 3.97031 5.23497C1.64781 7.55747 0.607806 9.85997 0.565306 9.96122C0.522571 10.0572 0.500488 10.1611 0.500488 10.2662C0.500488 10.3713 0.522571 10.4752 0.565306 10.5712C0.607806 10.6675 1.64781 12.9737 3.97031 15.2962C6.12531 17.4487 9.82781 20.015 15.2503 20.015C20.6728 20.015 24.3753 17.4487 26.5303 15.2962C28.8528 12.9737 29.8928 10.6712 29.9353 10.5712C29.978 10.4752 30.0001 10.3713 30.0001 10.2662C30.0001 10.1611 29.978 10.0572 29.9353 9.96122ZM15.2503 18.515C11.3278 18.515 7.90281 17.0875 5.06906 14.2737C3.88115 13.0932 2.87593 11.742 2.08656 10.265C2.8757 8.78813 3.88095 7.4374 5.06906 6.25747C7.90281 3.44247 11.3278 2.01497 15.2503 2.01497C19.1728 2.01497 22.5978 3.44247 25.4316 6.25747C26.6197 7.4374 27.6249 8.78813 28.4141 10.265C27.6178 11.7912 23.6253 18.515 15.2503 18.515ZM15.2503 4.51497C14.1131 4.51497 13.0014 4.8522 12.0558 5.48402C11.1102 6.11584 10.3732 7.01386 9.938 8.06454C9.5028 9.11521 9.38893 10.2713 9.61079 11.3867C9.83266 12.5021 10.3803 13.5267 11.1844 14.3308C11.9886 15.135 13.0131 15.6826 14.1285 15.9045C15.2439 16.1263 16.4001 16.0125 17.4507 15.5773C18.5014 15.1421 19.3994 14.4051 20.0313 13.4595C20.6631 12.5139 21.0003 11.4022 21.0003 10.265C20.9983 8.74058 20.3919 7.2792 19.314 6.2013C18.2361 5.12339 16.7747 4.51695 15.2503 4.51497ZM15.2503 14.515C14.4097 14.515 13.588 14.2657 12.8891 13.7987C12.1902 13.3317 11.6455 12.668 11.3238 11.8914C11.0021 11.1148 10.918 10.2603 11.082 9.43583C11.246 8.61142 11.6507 7.85414 12.2451 7.25976C12.8395 6.66539 13.5968 6.26062 14.4212 6.09663C15.2456 5.93264 16.1001 6.01681 16.8767 6.33848C17.6533 6.66015 18.3171 7.20489 18.7841 7.9038C19.251 8.6027 19.5003 9.4244 19.5003 10.265C19.5003 11.3921 19.0525 12.4731 18.2555 13.2702C17.4585 14.0672 16.3775 14.515 15.2503 14.515Z" fill="#979797"/>
</svg>
