<svg width="30" height="24" viewBox="0 0 30 24" fill="none" xmlns="http://www.w3.org/2000/svg">
<path d="M5.80518 0.739934C5.66788 0.612492 5.48786 0.541047 5.30053 0.539655C5.1132 0.538264 4.93214 0.607026 4.79296 0.732414C4.65378 0.857802 4.56656 1.03074 4.54847 1.21719C4.53037 1.40365 4.58271 1.59012 4.69518 1.73993L7.30518 4.61493C2.64518 7.35243 0.651434 11.7399 0.565184 11.9362C0.522449 12.0322 0.500366 12.1361 0.500366 12.2412C0.500366 12.3463 0.522449 12.4502 0.565184 12.5462C0.607684 12.6424 1.64768 14.9487 3.97018 17.2712C6.12518 19.4237 9.82768 21.9899 15.2502 21.9899C17.5167 22.0037 19.7591 21.5238 21.8214 20.5837L24.6964 23.7449C24.8304 23.8921 25.0173 23.9801 25.2161 23.9895C25.4149 23.9988 25.6092 23.9289 25.7564 23.7949C25.9036 23.661 25.9916 23.4741 26.001 23.2753C26.0103 23.0765 25.9404 22.8821 25.8064 22.7349L5.80518 0.739934ZM11.8827 9.65493L17.5077 15.8449C16.6632 16.3726 15.6601 16.587 14.6737 16.4507C13.6872 16.3144 12.78 15.8359 12.1102 15.0989C11.4405 14.3619 11.0508 13.4132 11.0093 12.4182C10.9677 11.4232 11.2768 10.4452 11.8827 9.65493ZM15.2502 20.4899C11.3277 20.4899 7.90268 19.0624 5.06893 16.2487C3.88075 15.0684 2.87549 13.7172 2.08643 12.2399C2.62268 11.2149 4.59893 7.84243 8.33643 5.75118L10.8614 8.52743C9.96245 9.59271 9.48104 10.9483 9.50676 12.3419C9.53249 13.7356 10.0636 15.0725 11.0013 16.1039C11.939 17.1352 13.2194 17.7909 14.6043 17.9488C15.9892 18.1067 17.3844 17.7562 18.5302 16.9624L20.7564 19.4124C19.0111 20.1347 17.139 20.501 15.2502 20.4899ZM16.0502 8.06493C15.8548 8.02764 15.6821 7.91423 15.5703 7.74967C15.4585 7.58511 15.4166 7.38287 15.4539 7.18743C15.4912 6.992 15.6046 6.81939 15.7692 6.70757C15.9338 6.59575 16.136 6.55389 16.3314 6.59118C17.5527 6.82844 18.6646 7.454 19.5014 8.37461C20.3383 9.29523 20.8552 10.4616 20.9752 11.6999C20.9843 11.798 20.974 11.8969 20.9449 11.991C20.9158 12.0851 20.8684 12.1726 20.8055 12.2484C20.7426 12.3242 20.6654 12.3869 20.5782 12.4328C20.4911 12.4788 20.3958 12.5071 20.2977 12.5162H20.2277C20.0401 12.517 19.8591 12.4475 19.7203 12.3214C19.5814 12.1952 19.4949 12.0217 19.4777 11.8349C19.3885 10.9212 19.0068 10.0607 18.3892 9.38145C17.7717 8.70218 16.9513 8.24043 16.0502 8.06493ZM29.9352 12.5462C29.8839 12.6612 28.6389 15.4212 25.8277 17.9362C25.7548 18.0045 25.6689 18.0576 25.5752 18.0923C25.4815 18.127 25.3817 18.1426 25.2819 18.1382C25.182 18.1338 25.0841 18.1095 24.9937 18.0668C24.9034 18.024 24.8226 17.9636 24.7559 17.8891C24.6893 17.8146 24.6382 17.7276 24.6056 17.6331C24.5731 17.5386 24.5598 17.4385 24.5665 17.3388C24.5732 17.2391 24.5997 17.1417 24.6446 17.0524C24.6894 16.963 24.7517 16.8836 24.8277 16.8187C26.2808 15.5131 27.4945 13.9635 28.4139 12.2399C27.6247 10.7628 26.6195 9.41163 25.4314 8.23118C22.5977 5.41743 19.1727 3.98993 15.2502 3.98993C14.4257 3.98895 13.6025 4.05584 12.7889 4.18993C12.691 4.2084 12.5903 4.20715 12.4929 4.18627C12.3954 4.16538 12.3031 4.12527 12.2213 4.06829C12.1395 4.01131 12.0699 3.9386 12.0165 3.8544C11.9632 3.77021 11.9271 3.67622 11.9105 3.57794C11.8939 3.47965 11.897 3.37904 11.9197 3.28198C11.9425 3.18492 11.9843 3.09337 12.0428 3.01267C12.1013 2.93197 12.1753 2.86374 12.2605 2.81198C12.3457 2.76021 12.4404 2.72595 12.5389 2.71118C13.435 2.56243 14.3419 2.48843 15.2502 2.48993C20.6727 2.48993 24.3752 5.05743 26.5302 7.20993C28.8527 9.53243 29.8927 11.8349 29.9352 11.9362C29.9779 12.0322 30 12.1361 30 12.2412C30 12.3463 29.9779 12.4502 29.9352 12.5462Z" fill="#979797"/>
</svg>
